<svg aria-hidden="true" style="position: absolute; width: 0; height: 0; overflow: hidden;" version="1.1" xmlns="http://www.w3.org/2000/svg" xmlns:xlink="http://www.w3.org/1999/xlink">
<defs>
<symbol id="icon-instagram" viewBox="0 0 32 32">
<path d="M16 3.711c3.976 0 4.518 0 6.145 0 1.446 0 2.169 0.361 2.711 0.542 0.723 0.361 1.265 0.542 1.807 1.084s0.904 1.084 1.084 1.807c0.181 0.542 0.361 1.265 0.542 2.711 0 1.627 0 1.988 0 6.145s0 4.518 0 6.145c0 1.446-0.361 2.169-0.542 2.711-0.361 0.723-0.542 1.265-1.084 1.807s-1.084 0.904-1.807 1.084c-0.542 0.181-1.265 0.361-2.711 0.542-1.627 0-1.988 0-6.145 0s-4.518 0-6.145 0c-1.446 0-2.169-0.361-2.711-0.542-0.723-0.361-1.265-0.542-1.807-1.084s-0.904-1.084-1.084-1.807c-0.181-0.542-0.361-1.265-0.542-2.711 0-1.627 0-1.988 0-6.145s0-4.518 0-6.145c0-1.446 0.361-2.169 0.542-2.711 0.361-0.723 0.542-1.265 1.084-1.807s1.084-0.904 1.807-1.084c0.542-0.181 1.265-0.361 2.711-0.542 1.627 0 2.169 0 6.145 0zM16 1c-4.157 0-4.518 0-6.145 0s-2.711 0.361-3.614 0.723c-0.904 0.361-1.807 0.904-2.711 1.807s-1.265 1.627-1.807 2.711c-0.361 0.904-0.542 1.988-0.723 3.614 0 1.627 0 2.169 0 6.145 0 4.157 0 4.518 0 6.145s0.361 2.711 0.723 3.614 0.904 1.807 1.807 2.711c0.904 0.904 1.626 1.265 2.711 1.807 0.904 0.361 1.988 0.542 3.614 0.723 1.627 0 2.169 0 6.145 0s4.518 0 6.145 0c1.626 0 2.711-0.361 3.614-0.723s1.807-0.904 2.711-1.807 1.265-1.626 1.807-2.711c0.361-0.904 0.542-1.988 0.723-3.614 0-1.627 0-2.169 0-6.145s0-4.518 0-6.145c0-1.627-0.361-2.711-0.723-3.614s-0.904-1.807-1.807-2.711-1.626-1.265-2.711-1.807c-0.904-0.361-1.988-0.542-3.614-0.723-1.627 0-1.988 0-6.145 0z"></path>
<path d="M16 8.229c-4.337 0-7.771 3.434-7.771 7.771s3.434 7.771 7.771 7.771c4.337 0 7.771-3.434 7.771-7.771s-3.434-7.771-7.771-7.771zM16 21.060c-2.711 0-5.060-2.169-5.060-5.060 0-2.711 2.169-5.060 5.060-5.060 2.711 0 5.060 2.169 5.060 5.060 0 2.711-2.349 5.060-5.060 5.060z"></path>
<path d="M23.952 9.855c0.998 0 1.807-0.809 1.807-1.807s-0.809-1.807-1.807-1.807c-0.998 0-1.807 0.809-1.807 1.807s0.809 1.807 1.807 1.807z"></path>
</symbol>
<symbol id="icon-phone" viewBox="0 0 32 32">
<path d="M26.25 5.735c-2.789-2.779-6.508-4.324-10.433-4.324-8.161 0-14.772 6.588-14.772 14.721 0 2.574 0.723 5.147 1.963 7.309l-2.066 7.618 7.851-2.059c2.169 1.132 4.545 1.75 7.024 1.75 8.161 0 14.772-6.588 14.772-14.72-0.103-3.809-1.55-7.515-4.339-10.294zM22.944 21.382c-0.31 0.824-1.756 1.647-2.479 1.75-0.62 0.103-1.446 0.103-2.273-0.103-0.517-0.206-1.24-0.412-2.066-0.824-3.719-1.544-6.095-5.25-6.301-5.559-0.207-0.206-1.55-1.956-1.55-3.809s0.93-2.676 1.24-3.088c0.31-0.412 0.723-0.412 1.033-0.412 0.207 0 0.517 0 0.723 0s0.517-0.103 0.826 0.618c0.31 0.721 1.033 2.574 1.136 2.676 0.103 0.206 0.103 0.412 0 0.618s-0.207 0.412-0.413 0.618c-0.207 0.206-0.413 0.515-0.517 0.618-0.207 0.206-0.413 0.412-0.207 0.721 0.207 0.412 0.93 1.544 2.066 2.574 1.446 1.235 2.582 1.647 2.996 1.853s0.62 0.103 0.826-0.103c0.207-0.206 0.93-1.029 1.136-1.441s0.517-0.309 0.827-0.206c0.31 0.103 2.169 1.029 2.479 1.235 0.413 0.206 0.62 0.309 0.723 0.412 0.103 0.309 0.103 1.029-0.207 1.853z"></path>
</symbol>
<symbol id="icon-youtube" viewBox="0 0 48 32">
<path d="M6.525 30.114c-0.785-0.232-1.5-0.645-2.087-1.204s-1.027-1.247-1.284-2.007c-1.468-3.928-1.903-20.329 0.924-23.566 0.941-1.053 2.27-1.702 3.697-1.805 7.585-0.796 31.019-0.69 33.711 0.265 0.757 0.24 1.449 0.644 2.023 1.181s1.017 1.195 1.294 1.924c1.604 4.060 1.658 18.816-0.218 22.717-0.498 1.015-1.331 1.838-2.365 2.335-2.827 1.38-31.944 1.354-35.696 0.159zM18.568 22.417l13.593-6.9-13.593-6.953v13.853z"></path>
</symbol>
</defs>
</svg>
