<svg aria-hidden="true" style="position: absolute; width: 0; height: 0; overflow: hidden;" version="1.1" xmlns="http://www.w3.org/2000/svg" xmlns:xlink="http://www.w3.org/1999/xlink">
<defs>
<symbol id="instagram" viewBox="0 0 32 32">
<path fill="#03709b" style="fill: var(--color1, #03709b)" opacity="0.5" d="M16 1c8.284 0 15 6.716 15 15s-6.716 15-15 15c-8.284 0-15-6.716-15-15s6.716-15 15-15z"></path>
<path fill="#fff" style="fill: var(--color2, #fff)" d="M16 9.855c1.988 0 2.259 0 3.072 0 0.723 0 1.084 0.181 1.355 0.271 0.361 0.181 0.633 0.271 0.904 0.542s0.452 0.542 0.542 0.904c0.090 0.271 0.181 0.633 0.271 1.355 0 0.813 0 0.994 0 3.072s0 2.259 0 3.072c0 0.723-0.181 1.084-0.271 1.355-0.181 0.361-0.271 0.633-0.542 0.904s-0.542 0.452-0.904 0.542c-0.271 0.090-0.633 0.181-1.355 0.271-0.813 0-0.994 0-3.072 0s-2.259 0-3.072 0c-0.723 0-1.084-0.181-1.355-0.271-0.361-0.181-0.633-0.271-0.904-0.542s-0.452-0.542-0.542-0.904c-0.090-0.271-0.181-0.633-0.271-1.355 0-0.813 0-0.994 0-3.072s0-2.259 0-3.072c0-0.723 0.181-1.084 0.271-1.355 0.181-0.361 0.271-0.633 0.542-0.904s0.542-0.452 0.904-0.542c0.271-0.090 0.633-0.181 1.355-0.271 0.813 0 1.084 0 3.072 0zM16 8.5c-2.078 0-2.259 0-3.072 0s-1.355 0.181-1.807 0.361-0.904 0.452-1.355 0.904c-0.452 0.452-0.633 0.813-0.904 1.355-0.181 0.452-0.271 0.994-0.361 1.807 0 0.813 0 1.084 0 3.072 0 2.078 0 2.259 0 3.072s0.181 1.355 0.361 1.807 0.452 0.904 0.904 1.355c0.452 0.452 0.813 0.633 1.355 0.904 0.452 0.181 0.994 0.271 1.807 0.361 0.813 0 1.084 0 3.072 0s2.259 0 3.072 0c0.813 0 1.355-0.181 1.807-0.361s0.904-0.452 1.355-0.904 0.633-0.813 0.904-1.355c0.181-0.452 0.271-0.994 0.361-1.807 0-0.813 0-1.084 0-3.072s0-2.259 0-3.072c0-0.813-0.181-1.355-0.361-1.807s-0.452-0.904-0.904-1.355-0.813-0.633-1.355-0.904c-0.452-0.181-0.994-0.271-1.807-0.361-0.813 0-0.994 0-3.072 0z"></path>
<path fill="#fff" style="fill: var(--color2, #fff)" d="M16 12.114c-2.169 0-3.886 1.717-3.886 3.886s1.717 3.886 3.886 3.886c2.169 0 3.886-1.717 3.886-3.886s-1.717-3.886-3.886-3.886zM16 18.53c-1.355 0-2.53-1.084-2.53-2.53 0-1.355 1.084-2.53 2.53-2.53 1.355 0 2.53 1.084 2.53 2.53 0 1.355-1.175 2.53-2.53 2.53z"></path>
<path fill="#fff" style="fill: var(--color2, #fff)" d="M19.976 12.928c0.499 0 0.904-0.405 0.904-0.904s-0.404-0.904-0.904-0.904c-0.499 0-0.904 0.405-0.904 0.904s0.405 0.904 0.904 0.904z"></path>
<path fill="none" stroke="#fff" style="stroke: var(--color2, #fff)" stroke-linejoin="miter" stroke-linecap="butt" stroke-miterlimit="4" stroke-width="1" d="M16 0.5c8.56 0 15.5 6.94 15.5 15.5s-6.94 15.5-15.5 15.5c-8.56 0-15.5-6.94-15.5-15.5s6.94-15.5 15.5-15.5z"></path>
</symbol>
<symbol id="phone" viewBox="0 0 32 32">
<path fill="#856c57" style="fill: var(--color3, #856c57)" d="M16 1c8.284 0 15 6.716 15 15s-6.716 15-15 15c-8.284 0-15-6.716-15-15s6.716-15 15-15z"></path>
<path fill="#fff" style="fill: var(--color2, #fff)" d="M21.945 10.047c-1.482-1.477-3.457-2.297-5.543-2.297-4.335 0-7.848 3.5-7.848 7.82 0 1.367 0.384 2.734 1.043 3.883l-1.098 4.047 4.171-1.094c1.152 0.602 2.415 0.93 3.732 0.93 4.335 0 7.848-3.5 7.848-7.82-0.055-2.023-0.823-3.992-2.305-5.469zM20.189 18.359c-0.165 0.438-0.933 0.875-1.317 0.93-0.329 0.055-0.768 0.055-1.207-0.055-0.274-0.109-0.659-0.219-1.098-0.438-1.976-0.82-3.238-2.789-3.348-2.953-0.11-0.109-0.823-1.039-0.823-2.024s0.494-1.422 0.659-1.641c0.165-0.219 0.384-0.219 0.549-0.219 0.11 0 0.274 0 0.384 0s0.274-0.055 0.439 0.328c0.165 0.383 0.549 1.367 0.604 1.422 0.055 0.109 0.055 0.219 0 0.328s-0.11 0.219-0.22 0.328c-0.11 0.109-0.22 0.273-0.274 0.328-0.11 0.109-0.22 0.219-0.11 0.383 0.11 0.219 0.494 0.82 1.098 1.367 0.768 0.656 1.372 0.875 1.592 0.984s0.329 0.055 0.439-0.055c0.11-0.109 0.494-0.547 0.604-0.766s0.274-0.164 0.439-0.109c0.165 0.055 1.152 0.547 1.317 0.656 0.22 0.109 0.329 0.164 0.384 0.219 0.055 0.164 0.055 0.547-0.11 0.984z"></path>
<path fill="none" stroke="#fff" style="stroke: var(--color2, #fff)" stroke-linejoin="miter" stroke-linecap="butt" stroke-miterlimit="4" stroke-width="1" d="M16 0.5c8.56 0 15.5 6.94 15.5 15.5s-6.94 15.5-15.5 15.5c-8.56 0-15.5-6.94-15.5-15.5s6.94-15.5 15.5-15.5z"></path>
</symbol>
<symbol id="youtube" viewBox="0 0 32 32">
<path fill="#03709b" style="fill: var(--color1, #03709b)" opacity="0.5" d="M16 1c8.284 0 15 6.716 15 15s-6.716 15-15 15c-8.284 0-15-6.716-15-15s6.716-15 15-15z"></path>
<path fill="#fff" style="fill: var(--color2, #fff)" d="M9.447 21.293c-0.294-0.087-0.563-0.242-0.783-0.451s-0.385-0.468-0.482-0.753c-0.551-1.473-0.714-7.623 0.347-8.837 0.353-0.395 0.851-0.638 1.386-0.677 2.844-0.299 11.632-0.259 12.642 0.1 0.284 0.090 0.543 0.241 0.759 0.443s0.381 0.448 0.485 0.721c0.602 1.523 0.622 7.056-0.082 8.519-0.187 0.381-0.499 0.689-0.887 0.876-1.060 0.517-11.979 0.508-13.386 0.060zM13.963 18.407l5.097-2.588-5.097-2.607v5.195z"></path>
<path fill="none" stroke="#fff" style="stroke: var(--color2, #fff)" stroke-linejoin="miter" stroke-linecap="butt" stroke-miterlimit="4" stroke-width="1" d="M16 0.5c8.56 0 15.5 6.94 15.5 15.5s-6.94 15.5-15.5 15.5c-8.56 0-15.5-6.94-15.5-15.5s6.94-15.5 15.5-15.5z"></path>
</symbol>
</defs>
</svg>
